<svg width="154" height="20" viewBox="0 0 154 20" fill="none" xmlns="http://www.w3.org/2000/svg">
<path d="M10.755 11.59V13.435L1.2825 9.1825V7.4725L10.755 3.2425V5.065L3.15 8.305L10.755 11.59ZM13.4627 18.295H11.6627L19.8527 0.0924996H21.6752L13.4627 18.295ZM31.5149 9.1825L22.0424 13.435V11.59L29.6249 8.305L22.0424 5.065V3.2425L31.5149 7.4725V9.1825Z" fill="white"/>
<path d="M41.795 12H36.155V1.89H41.72V2.955H37.37V6.42H41.21V7.485H37.37V10.935H41.795V12ZM46.7296 12H43.6696V1.89H46.6696C48.1596 1.89 49.3796 2.355 50.3296 3.285C51.2896 4.205 51.7696 5.4 51.7696 6.87C51.7696 8.33 51.3246 9.55 50.4346 10.53C49.5546 11.51 48.3196 12 46.7296 12ZM46.6546 2.97H44.8996V10.935H46.7146C47.9646 10.935 48.9096 10.55 49.5496 9.78C50.1896 9 50.5096 8.03 50.5096 6.87C50.5096 5.77 50.1496 4.845 49.4296 4.095C48.7196 3.345 47.7946 2.97 46.6546 2.97ZM60.9666 8.16C60.9666 9.46 60.6366 10.445 59.9766 11.115C59.3266 11.785 58.4166 12.12 57.2466 12.12C56.0966 12.12 55.1966 11.795 54.5466 11.145C53.8966 10.485 53.5716 9.53 53.5716 8.28V1.89H54.7866V8.265C54.7866 9.195 55.0066 9.88 55.4466 10.32C55.8966 10.76 56.4966 10.98 57.2466 10.98C58.9166 10.98 59.7516 10.05 59.7516 8.19V1.89H60.9666V8.16ZM65.3696 7.74L65.1746 8.31H68.7596L68.5646 7.725L66.9896 2.865C66.8696 3.295 66.3296 4.92 65.3696 7.74ZM63.9296 12H62.6246L66.1496 1.89H67.8296L71.2946 12H69.9896L69.1046 9.345H64.8296L63.9296 12ZM75.5912 2.94H74.1962V6.975H75.7262C76.4162 6.975 76.9412 6.79 77.3012 6.42C77.6712 6.04 77.8562 5.555 77.8562 4.965C77.8562 3.615 77.1012 2.94 75.5912 2.94ZM75.6512 8.01H74.1962V12H72.9812V1.89H75.5162C76.6862 1.89 77.5712 2.165 78.1712 2.715C78.7812 3.265 79.0862 4.025 79.0862 4.995C79.0662 5.695 78.8812 6.29 78.5312 6.78C78.1812 7.27 77.6862 7.615 77.0462 7.815L79.7012 12H78.2462L75.7712 8.01H75.6512ZM84.2589 12H81.1989V1.89H84.1989C85.6889 1.89 86.9089 2.355 87.8589 3.285C88.8189 4.205 89.2989 5.4 89.2989 6.87C89.2989 8.33 88.8539 9.55 87.9639 10.53C87.0839 11.51 85.8489 12 84.2589 12ZM84.1839 2.97H82.4289V10.935H84.2439C85.4939 10.935 86.4389 10.55 87.0789 9.78C87.7189 9 88.0389 8.03 88.0389 6.87C88.0389 5.77 87.6789 4.845 86.9589 4.095C86.2489 3.345 85.3239 2.97 84.1839 2.97ZM99.7559 6.9C99.7559 8.49 99.3459 9.76 98.5259 10.71C97.7159 11.65 96.6159 12.12 95.2259 12.12C93.8559 12.12 92.7559 11.645 91.9259 10.695C91.0959 9.745 90.6809 8.48 90.6809 6.9C90.6809 5.31 91.0859 4.045 91.8959 3.105C92.7159 2.165 93.8209 1.695 95.2109 1.695C96.6309 1.695 97.7409 2.165 98.5409 3.105C99.3509 4.035 99.7559 5.3 99.7559 6.9ZM91.9559 6.9C91.9559 8.15 92.2509 9.14 92.8409 9.87C93.4409 10.6 94.2359 10.965 95.2259 10.965C96.2559 10.965 97.0509 10.605 97.6109 9.885C98.1809 9.165 98.4659 8.17 98.4659 6.9C98.4659 5.63 98.1809 4.635 97.6109 3.915C97.0409 3.195 96.2409 2.835 95.2109 2.835C94.1909 2.835 93.3909 3.2 92.8109 3.93C92.2409 4.65 91.9559 5.64 91.9559 6.9ZM103.524 12H101.214L102.084 1.89H104.619L106.029 5.55C106.269 6.16 106.474 6.72 106.644 7.23C106.814 7.74 106.924 8.1 106.974 8.31L107.049 8.61C107.209 7.95 107.559 6.93 108.099 5.55L109.524 1.89H112.059L113.109 12H110.799L110.424 8.085L110.229 5.13C109.969 5.88 109.609 6.865 109.149 8.085L107.724 11.895H106.359L104.949 8.085C104.719 7.465 104.524 6.91 104.364 6.42C104.204 5.93 104.099 5.59 104.049 5.4L103.974 5.13C103.974 5.84 103.929 6.825 103.839 8.085L103.524 12ZM117.888 7.71L117.783 8.07H120.213L120.108 7.71C119.818 6.73 119.578 5.895 119.388 5.205C119.208 4.515 119.098 4.07 119.058 3.87L118.998 3.57C118.918 4.12 118.548 5.5 117.888 7.71ZM116.613 12H114.198L117.573 1.89H120.483L123.858 12H121.383L120.768 9.93H117.228L116.613 12ZM128.634 3.765H127.494V6.615H128.589C129.589 6.615 130.089 6.125 130.089 5.145C130.089 4.715 129.959 4.38 129.699 4.14C129.439 3.89 129.084 3.765 128.634 3.765ZM127.494 12H125.184V1.89H128.679C129.809 1.89 130.714 2.19 131.394 2.79C132.084 3.39 132.429 4.17 132.429 5.13C132.429 6.57 131.814 7.565 130.584 8.115L133.149 12H130.389L128.199 8.49H127.494V12ZM137.848 3.765H136.708V6.615H137.803C138.803 6.615 139.303 6.125 139.303 5.145C139.303 4.715 139.173 4.38 138.913 4.14C138.653 3.89 138.298 3.765 137.848 3.765ZM136.708 12H134.398V1.89H137.893C139.023 1.89 139.928 2.19 140.608 2.79C141.298 3.39 141.643 4.17 141.643 5.13C141.643 6.57 141.028 7.565 139.798 8.115L142.363 12H139.603L137.413 8.49H136.708V12ZM146.672 7.71L146.567 8.07H148.997L148.892 7.71C148.602 6.73 148.362 5.895 148.172 5.205C147.992 4.515 147.882 4.07 147.842 3.87L147.782 3.57C147.702 4.12 147.332 5.5 146.672 7.71ZM145.397 12H142.982L146.357 1.89H149.267L152.642 12H150.167L149.552 9.93H146.012L145.397 12Z" fill="white"/>
<path d="M57.0775 19H55.6V13.945H57.04C57.78 13.945 58.3875 14.175 58.8625 14.635C59.3375 15.095 59.575 15.6975 59.575 16.4425C59.575 16.8975 59.4875 17.315 59.3125 17.695C59.1375 18.07 58.855 18.3825 58.465 18.6325C58.08 18.8775 57.6175 19 57.0775 19ZM57.04 14.3725H56.065V18.5725H57.0775C57.4225 18.5725 57.7275 18.5125 57.9925 18.3925C58.2575 18.2725 58.4675 18.11 58.6225 17.905C58.7775 17.7 58.8925 17.475 58.9675 17.23C59.0475 16.985 59.0875 16.7225 59.0875 16.4425C59.0875 15.8675 58.895 15.38 58.51 14.98C58.13 14.575 57.64 14.3725 57.04 14.3725ZM65.1271 19H62.3896V13.945H65.0821V14.3725H62.8546V16.2625H64.8196V16.69H62.8546V18.5725H65.1271V19ZM69.9963 19H69.3588L67.6413 13.945H68.1438L68.8113 15.9475L69.6813 18.5875L70.5813 15.9475L71.2713 13.945H71.7738L69.9963 19ZM74.7503 18.4075C74.8253 18.4775 74.8628 18.5675 74.8628 18.6775C74.8628 18.7875 74.8253 18.88 74.7503 18.955C74.6803 19.025 74.5903 19.06 74.4803 19.06C74.3703 19.06 74.2778 19.025 74.2028 18.955C74.1328 18.88 74.0978 18.7875 74.0978 18.6775C74.0978 18.5675 74.1328 18.4775 74.2028 18.4075C74.2778 18.3325 74.3703 18.295 74.4803 18.295C74.5903 18.295 74.6803 18.3325 74.7503 18.4075ZM83.4377 16.7275H81.4727V19H81.0077V13.945H83.7002V14.3725H81.4727V16.3H83.4377V16.7275ZM87.708 14.3575H86.9805V16.5325H87.798C88.168 16.5325 88.453 16.43 88.653 16.225C88.853 16.02 88.953 15.765 88.953 15.46C88.953 14.725 88.538 14.3575 87.708 14.3575ZM87.7455 16.945H86.9805V19H86.5155V13.945H87.6555C88.2455 13.945 88.6855 14.08 88.9755 14.35C89.2705 14.615 89.418 14.9925 89.418 15.4825C89.408 15.8225 89.313 16.115 89.133 16.36C88.953 16.605 88.698 16.7725 88.368 16.8625L89.7105 19H89.1555L87.888 16.9375C87.858 16.9425 87.8105 16.945 87.7455 16.945ZM96.5824 16.45C96.5824 17.25 96.3849 17.885 95.9899 18.355C95.5949 18.825 95.0574 19.06 94.3774 19.06C93.7074 19.06 93.1674 18.8225 92.7574 18.3475C92.3524 17.8725 92.1499 17.24 92.1499 16.45C92.1499 15.655 92.3474 15.0225 92.7424 14.5525C93.1424 14.0775 93.6824 13.84 94.3624 13.84C95.0624 13.84 95.6074 14.075 95.9974 14.545C96.3874 15.01 96.5824 15.645 96.5824 16.45ZM92.6299 16.45C92.6299 17.115 92.7874 17.6425 93.1024 18.0325C93.4224 18.4175 93.8474 18.61 94.3774 18.61C94.9274 18.61 95.3524 18.42 95.6524 18.04C95.9524 17.655 96.1024 17.125 96.1024 16.45C96.1024 15.77 95.9499 15.24 95.6449 14.86C95.3449 14.48 94.9174 14.29 94.3624 14.29C93.8224 14.29 93.3974 14.4825 93.0874 14.8675C92.7824 15.2475 92.6299 15.775 92.6299 16.45ZM99.9004 19H99.4354V13.945H100.073L101.363 16.0825L102.788 18.4525C102.778 17.9325 102.773 17.145 102.773 16.09V13.945H103.238V19H102.6L101.318 16.8775L99.8854 14.4925C99.8954 15.0325 99.9004 15.8225 99.9004 16.8625V19ZM109.088 14.3725H107.685V19H107.22V14.3725H105.825V13.945H109.088V14.3725ZM113.212 17.1775H111.524V16.765H113.212V17.1775ZM118.872 19H116.135V13.945H118.827V14.3725H116.6V16.2625H118.565V16.69H116.6V18.5725H118.872V19ZM122.151 19H121.686V13.945H122.324L123.614 16.0825L125.039 18.4525C125.029 17.9325 125.024 17.145 125.024 16.09V13.945H125.489V19H124.851L123.569 16.8775L122.136 14.4925C122.146 15.0325 122.151 15.8225 122.151 16.8625V19ZM130.041 19H128.564V13.945H130.004C130.744 13.945 131.351 14.175 131.826 14.635C132.301 15.095 132.539 15.6975 132.539 16.4425C132.539 16.8975 132.451 17.315 132.276 17.695C132.101 18.07 131.819 18.3825 131.429 18.6325C131.044 18.8775 130.581 19 130.041 19ZM130.004 14.3725H129.029V18.5725H130.041C130.386 18.5725 130.691 18.5125 130.956 18.3925C131.221 18.2725 131.431 18.11 131.586 17.905C131.741 17.7 131.856 17.475 131.931 17.23C132.011 16.985 132.051 16.7225 132.051 16.4425C132.051 15.8675 131.859 15.38 131.474 14.98C131.094 14.575 130.604 14.3725 130.004 14.3725Z" fill="#ff5b50"/>
</svg>
